<svg width="44" height="44" viewBox="0 0 44 44" fill="none" xmlns="http://www.w3.org/2000/svg">
<g clip-path="url(#clip0_11_22)">
<path d="M1.14441e-05 12.8333C-0.00138474 12.5921 0.0448608 12.3529 0.136097 12.1295C0.227333 11.9061 0.361763 11.703 0.531681 11.5317C0.70211 11.3598 0.904877 11.2235 1.12829 11.1304C1.3517 11.0373 1.59132 10.9894 1.83334 10.9894C2.07537 10.9894 2.31499 11.0373 2.5384 11.1304C2.76181 11.2235 2.96458 11.3598 3.13501 11.5317L18.1133 26.51C19.1446 27.54 20.5425 28.1185 22 28.1185C23.4575 28.1185 24.8554 27.54 25.8867 26.51L40.865 11.5317C41.2102 11.1865 41.6785 10.9925 42.1667 10.9925C42.6549 10.9925 43.1231 11.1865 43.4683 11.5317C43.8136 11.8769 44.0075 12.3451 44.0075 12.8333C44.0075 13.3216 43.8136 13.7898 43.4683 14.135L28.49 29.1133C27.6385 29.967 26.627 30.6443 25.5133 31.1064C24.3996 31.5685 23.2057 31.8064 22 31.8064C20.7943 31.8064 19.6004 31.5685 18.4867 31.1064C17.3731 30.6443 16.3615 29.967 15.51 29.1133L0.531681 14.135C0.361763 13.9637 0.227333 13.7605 0.136097 13.5372C0.0448608 13.3138 -0.00138474 13.0746 1.14441e-05 12.8333Z" fill="white"/>
</g>
<defs>
<clipPath id="clip0_11_22">
<rect width="44" height="44" fill="white" transform="translate(44) rotate(90)"/>
</clipPath>
</defs>
</svg>
