<svg width="82" height="82" viewBox="0 0 82 82" fill="none" xmlns="http://www.w3.org/2000/svg">
<g clip-path="url(#clip0_113_68)">
<path d="M44.4165 3.41663C44.4165 2.51047 44.7764 1.64143 45.4172 1.00068C46.0579 0.359932 46.927 -3.68571e-05 47.8331 -3.68571e-05C56.8916 0.0099111 65.5763 3.6128 71.9816 10.0181C78.387 16.4235 81.9898 25.1081 81.9998 34.1666C81.9998 35.0728 81.6398 35.9418 80.9991 36.5826C80.3583 37.2233 79.4893 37.5833 78.5831 37.5833C77.677 37.5833 76.8079 37.2233 76.1672 36.5826C75.5264 35.9418 75.1665 35.0728 75.1665 34.1666C75.1583 26.9199 72.2759 19.9723 67.1517 14.848C62.0275 9.7238 55.0799 6.84144 47.8331 6.8333C46.927 6.8333 46.0579 6.47333 45.4172 5.83258C44.7764 5.19183 44.4165 4.32279 44.4165 3.41663ZM47.8331 20.5C51.4578 20.5 54.9339 21.9398 57.4969 24.5028C60.0599 27.0658 61.4998 30.542 61.4998 34.1666C61.4998 35.0728 61.8598 35.9418 62.5005 36.5826C63.1413 37.2233 64.0103 37.5833 64.9165 37.5833C65.8226 37.5833 66.6917 37.2233 67.3324 36.5826C67.9732 35.9418 68.3331 35.0728 68.3331 34.1666C68.3277 28.7314 66.1661 23.5203 62.3228 19.6769C58.4795 15.8336 53.2684 13.6721 47.8331 13.6666C46.927 13.6666 46.0579 14.0266 45.4172 14.6674C44.7764 15.3081 44.4165 16.1771 44.4165 17.0833C44.4165 17.9895 44.7764 18.8585 45.4172 19.4992C46.0579 20.14 46.927 20.5 47.8331 20.5ZM78.9009 57.1916C80.8809 59.177 81.9928 61.8666 81.9928 64.6706C81.9928 67.4746 80.8809 70.1643 78.9009 72.1497L75.7917 75.7338C47.8092 102.524 -20.285 34.4468 6.09171 6.37546L10.0209 2.9588C12.0086 1.03411 14.6741 -0.0306192 17.4409 -0.00504281C20.2076 0.0205335 22.853 1.13436 24.8048 3.09546C24.9107 3.20138 31.2418 11.4253 31.2418 11.4253C33.1204 13.3989 34.1661 16.0205 34.1617 18.7452C34.1572 21.4699 33.1029 24.0881 31.2179 26.0555L27.2614 31.0301C29.4509 36.3503 32.6702 41.1853 36.7341 45.2575C40.7981 49.3296 45.6266 52.5586 50.9423 54.7589L55.9477 50.7785C57.9154 48.8949 60.5331 47.8418 63.257 47.838C65.9809 47.8342 68.6015 48.8799 70.5745 50.758C70.5745 50.758 78.795 57.0856 78.9009 57.1916ZM74.1995 62.1594C74.1995 62.1594 66.0235 55.8693 65.9175 55.7634C65.2137 55.0655 64.2626 54.6739 63.2713 54.6739C62.2801 54.6739 61.329 55.0655 60.6251 55.7634C60.5329 55.8591 53.6415 61.3496 53.6415 61.3496C53.1771 61.7193 52.6244 61.9616 52.0378 62.0527C51.4513 62.1437 50.8512 62.0804 50.2965 61.869C43.4101 59.305 37.1551 55.291 31.9553 50.0988C26.7555 44.9067 22.7322 38.6576 20.1581 31.775C19.9299 31.2128 19.8555 30.5999 19.9425 29.9995C20.0296 29.399 20.275 28.8325 20.6535 28.3583C20.6535 28.3583 26.1441 21.4635 26.2364 21.3746C26.9343 20.6708 27.3259 19.7197 27.3259 18.7284C27.3259 17.7372 26.9343 16.7861 26.2364 16.0822C26.1305 15.9797 19.8404 7.7968 19.8404 7.7968C19.1259 7.1562 18.1936 6.81312 17.2343 6.8379C16.2751 6.86267 15.3616 7.25342 14.6812 7.93005L10.752 11.3467C-8.5248 34.5254 50.4845 90.2615 70.7965 71.0666L73.9091 67.4791C74.6385 66.8035 75.0766 65.8708 75.1308 64.878C75.185 63.8853 74.8511 62.9104 74.1995 62.1594Z" fill="#034AA6"/>
</g>
<defs>
<clipPath id="clip0_113_68">
<rect width="82" height="82" fill="white"/>
</clipPath>
</defs>
</svg>
