<svg width="27" height="27" viewBox="0 0 27 27" fill="none" xmlns="http://www.w3.org/2000/svg">
<path d="M25.75 12.6875C25.7547 14.5024 25.3307 16.2926 24.5125 17.9125C23.5423 19.8537 22.0509 21.4864 20.2052 22.6278C18.3596 23.7692 16.2326 24.3742 14.0625 24.375C12.2477 24.3798 10.4574 23.9558 8.8375 23.1375L1 25.75L3.6125 17.9125C2.79428 16.2926 2.37027 14.5024 2.375 12.6875C2.37584 10.5175 2.98084 8.39046 4.12224 6.54479C5.26364 4.69913 6.89635 3.20769 8.8375 2.23754C10.4574 1.41932 12.2477 0.995307 14.0625 1.00004H14.75C17.616 1.15815 20.3229 2.36784 22.3526 4.39747C24.3822 6.4271 25.5919 9.13406 25.75 12V12.6875Z" stroke="black" stroke-width="2" stroke-linecap="round" stroke-linejoin="round"/>
</svg>
