<svg width="21" height="23" viewBox="0 0 21 23" fill="none" xmlns="http://www.w3.org/2000/svg">
<path d="M15.708 13.1358C15.708 13.3846 15.5983 13.6233 15.4029 13.7992C15.2076 13.9752 14.9426 14.074 14.6663 14.074H6.33301C6.05674 14.074 5.79179 13.9752 5.59644 13.7992C5.40109 13.6233 5.29134 13.3846 5.29134 13.1358C5.29134 12.8869 5.40109 12.6483 5.59644 12.4723C5.79179 12.2964 6.05674 12.1975 6.33301 12.1975H14.6663C14.9426 12.1975 15.2076 12.2964 15.4029 12.4723C15.5983 12.6483 15.708 12.8869 15.708 13.1358ZM11.5413 15.9506H6.33301C6.05674 15.9506 5.79179 16.0494 5.59644 16.2254C5.40109 16.4014 5.29134 16.64 5.29134 16.8889C5.29134 17.1377 5.40109 17.3764 5.59644 17.5523C5.79179 17.7283 6.05674 17.8271 6.33301 17.8271H11.5413C11.8176 17.8271 12.0826 17.7283 12.2779 17.5523C12.4733 17.3764 12.583 17.1377 12.583 16.8889C12.583 16.64 12.4733 16.4014 12.2779 16.2254C12.0826 16.0494 11.8176 15.9506 11.5413 15.9506ZM20.9163 9.83776V17.8271C20.9147 19.0709 20.3654 20.2633 19.389 21.1428C18.4126 22.0223 17.0888 22.517 15.708 22.5185H5.29134C3.91051 22.517 2.58671 22.0223 1.61032 21.1428C0.633927 20.2633 0.0846618 19.0709 0.0830078 17.8271V4.69134C0.0846618 3.44758 0.633927 2.25518 1.61032 1.3757C2.58671 0.496225 3.91051 0.00148095 5.29134 -8.89168e-06H9.99447C10.9524 -0.00222971 11.9013 0.166616 12.7864 0.496767C13.6714 0.826918 14.475 1.31182 15.1507 1.92345L18.7799 5.19426C19.4593 5.80248 19.998 6.52609 20.3647 7.32317C20.7314 8.12025 20.9189 8.97495 20.9163 9.83776V9.83776ZM13.6778 3.25016C13.35 2.96414 12.9819 2.71809 12.583 2.51831V6.56788C12.583 6.81673 12.6928 7.05538 12.8881 7.23134C13.0835 7.4073 13.3484 7.50616 13.6247 7.50616H18.1205C17.8986 7.14698 17.6251 6.81573 17.307 6.52097L13.6778 3.25016ZM18.833 9.83776C18.833 9.68294 18.7997 9.5347 18.7841 9.3827H13.6247C12.7959 9.3827 12.001 9.08614 11.415 8.55826C10.8289 8.03038 10.4997 7.31442 10.4997 6.56788V1.92063C10.3309 1.90656 10.1653 1.87653 9.99447 1.87653H5.29134C4.46254 1.87653 3.66768 2.17309 3.08163 2.70097C2.49558 3.22885 2.16634 3.94481 2.16634 4.69134V17.8271C2.16634 18.5737 2.49558 19.2896 3.08163 19.8175C3.66768 20.3454 4.46254 20.6419 5.29134 20.6419H15.708C16.5368 20.6419 17.3317 20.3454 17.9177 19.8175C18.5038 19.2896 18.833 18.5737 18.833 17.8271V9.83776Z" fill="black"/>
</svg>
