<svg width="82" height="82" viewBox="0 0 82 82" fill="none" xmlns="http://www.w3.org/2000/svg">
<g clip-path="url(#clip0_113_52)">
<path d="M68.3334 27.3333V24.9861C68.3271 20.1736 66.4125 15.5601 63.0096 12.1571C59.6067 8.75421 54.9931 6.83966 50.1807 6.83333H46.1251V0H35.8751V6.83333H31.8195C27.4615 6.82684 23.2465 8.3884 19.9447 11.2328C16.6429 14.0771 14.4745 18.0144 13.8357 22.3254C13.197 26.6363 14.1304 31.0332 16.4656 34.7128C18.8008 38.3924 22.3817 41.1091 26.5544 42.3667L35.8751 44.9155V64.9167H31.8195C29.7244 64.9139 27.7159 64.0805 26.2344 62.599C24.7529 61.1175 23.9195 59.109 23.9167 57.0139V54.6667H13.6667V57.0139C13.6731 61.8264 15.5876 66.4399 18.9906 69.8428C22.3935 73.2458 27.007 75.1603 31.8195 75.1667H35.8751V82H46.1251V75.1667H50.1807C54.5387 75.1731 58.7536 73.6116 62.0554 70.7672C65.3573 67.9229 67.5256 63.9856 68.1644 59.6746C68.8032 55.3637 67.8697 50.9668 65.5345 47.2872C63.1994 43.6076 59.6184 40.8909 55.4457 39.6333L46.1251 37.0913V17.0833H50.1807C52.2758 17.086 54.2843 17.9195 55.7657 19.401C57.2472 20.8825 58.0807 22.891 58.0834 24.9861V27.3333H68.3334ZM52.5552 49.4699C54.3577 50.0379 55.8971 51.2328 56.8944 52.838C57.8918 54.4433 58.2812 56.3526 57.992 58.2202C57.7028 60.0878 56.7543 61.79 55.3181 63.0185C53.882 64.2469 52.0534 64.9203 50.1636 64.9167H46.1251V47.7137L52.5552 49.4699ZM35.8751 34.2862L29.4449 32.5301C27.6439 31.9625 26.1055 30.769 25.108 29.1656C24.1106 27.5621 23.72 25.6547 24.0069 23.7882C24.2938 21.9218 25.2393 20.2197 26.6723 18.9899C28.1053 17.7601 29.9311 17.0838 31.8195 17.0833H35.8751V34.2862Z" fill="#034AA6"/>
</g>
<defs>
<clipPath id="clip0_113_52">
<rect width="82" height="82" fill="white"/>
</clipPath>
</defs>
</svg>
