<svg width="20" height="20" viewBox="0 0 20 20" fill="none" xmlns="http://www.w3.org/2000/svg">
<g clip-path="url(#clip0_92_45)">
<path d="M9.99984 0C7.34855 0.00286757 4.80668 1.05736 2.93193 2.9321C1.05719 4.80684 0.00270164 7.34872 -0.000165933 10C-0.105166 17.9775 9.299 22.8575 15.7498 18.1808C15.8425 18.1192 15.9219 18.0396 15.9834 17.9467C16.0448 17.8538 16.087 17.7496 16.1074 17.6402C16.1279 17.5307 16.1262 17.4183 16.1025 17.3095C16.0788 17.2007 16.0335 17.0978 15.9694 17.0068C15.9052 16.9158 15.8235 16.8386 15.729 16.7797C15.6345 16.7208 15.5292 16.6815 15.4192 16.664C15.3093 16.6465 15.1969 16.6512 15.0888 16.6779C14.9807 16.7045 14.8791 16.7526 14.7898 16.8192C9.4165 20.7133 1.58317 16.6483 1.6665 10C2.124 -1.055 17.8773 -1.0525 18.3332 10V11.6667C18.3332 12.1087 18.1576 12.5326 17.845 12.8452C17.5325 13.1577 17.1085 13.3333 16.6665 13.3333C16.2245 13.3333 15.8006 13.1577 15.488 12.8452C15.1754 12.5326 14.9998 12.1087 14.9998 11.6667V10C14.7898 3.3925 5.209 3.39333 4.99984 10C5.00954 11.0133 5.32605 11.9999 5.90766 12.8298C6.48926 13.6597 7.30867 14.2938 8.25788 14.6487C9.20709 15.0036 10.2416 15.0625 11.2249 14.8177C12.2083 14.5729 13.0944 14.0359 13.7665 13.2775C14.128 13.9155 14.6898 14.4165 15.3649 14.7029C16.04 14.9893 16.7907 15.0451 17.5007 14.8616C18.2107 14.6781 18.8403 14.2656 19.2922 13.688C19.744 13.1104 19.9927 12.4 19.9998 11.6667V10C19.997 7.34872 18.9425 4.80684 17.0677 2.9321C15.193 1.05736 12.6511 0.00286757 9.99984 0V0ZM9.99984 13.3333C9.11578 13.3333 8.26794 12.9821 7.64281 12.357C7.01769 11.7319 6.6665 10.8841 6.6665 10C6.6665 9.11595 7.01769 8.2681 7.64281 7.64298C8.26794 7.01786 9.11578 6.66667 9.99984 6.66667C10.8839 6.66667 11.7317 7.01786 12.3569 7.64298C12.982 8.2681 13.3332 9.11595 13.3332 10C13.3332 10.8841 12.982 11.7319 12.3569 12.357C11.7317 12.9821 10.8839 13.3333 9.99984 13.3333Z" fill="white"/>
</g>
<defs>
<clipPath id="clip0_92_45">
<rect width="20" height="20" fill="white"/>
</clipPath>
</defs>
</svg>
