<svg width="82" height="82" viewBox="0 0 82 82" fill="none" xmlns="http://www.w3.org/2000/svg">
<g clip-path="url(#clip0_114_78)">
<path d="M80.7734 36.7633L77.326 26.4279C76.4217 23.7055 74.6825 21.3372 72.3554 19.6597C70.0284 17.9822 67.2318 17.0807 64.3632 17.0833H57.7417C56.9487 13.2273 54.8505 9.76256 51.8009 7.27308C48.7513 4.7836 44.9367 3.4216 41 3.41663H17.0833C12.5542 3.42205 8.21216 5.22364 5.00958 8.42621C1.80701 11.6288 0.00542518 15.9708 0 20.5L0 66.625C0.02923 68.9873 0.754148 71.2885 2.08413 73.2411C3.41411 75.1936 5.29013 76.7108 7.47768 77.603C9.66522 78.4951 12.0672 78.7226 14.3834 78.2571C16.6995 77.7916 18.827 76.6536 20.5 74.9856C22.1729 76.6536 24.3005 77.7916 26.6166 78.2571C28.9328 78.7226 31.3348 78.4951 33.5223 77.603C35.7099 76.7108 37.5859 75.1936 38.9159 73.2411C40.2458 71.2885 40.9708 68.9873 41 66.625V64.9166H51.25V66.625C51.25 69.7965 52.5099 72.8382 54.7525 75.0808C56.9951 77.3234 60.0368 78.5833 63.2083 78.5833C66.3799 78.5833 69.4215 77.3234 71.6641 75.0808C73.9068 72.8382 75.1667 69.7965 75.1667 66.625V63.0819C77.2437 61.8827 78.9686 60.1581 80.1681 58.0812C81.3675 56.0043 81.9993 53.6483 82 51.25V44.3278C82.0004 41.7568 81.5862 39.2025 80.7734 36.7633ZM70.8446 28.5906L73.841 37.5833H58.0833V23.9166H64.3632C65.7973 23.917 67.195 24.3686 68.3583 25.2075C69.5215 26.0463 70.3914 27.2299 70.8446 28.5906ZM6.83333 20.5C6.83333 17.7815 7.91324 15.1744 9.83549 13.2521C11.7577 11.3299 14.3649 10.25 17.0833 10.25H41C43.7185 10.25 46.3256 11.3299 48.2478 13.2521C50.1701 15.1744 51.25 17.7815 51.25 20.5V58.0833H6.83333V20.5ZM11.9583 71.75C10.5991 71.75 9.29553 71.21 8.33441 70.2489C7.37329 69.2878 6.83333 67.9842 6.83333 66.625V64.9166H17.0833V66.625C17.0833 67.9842 16.5434 69.2878 15.5823 70.2489C14.6211 71.21 13.3176 71.75 11.9583 71.75ZM34.1667 66.625C34.1667 67.9842 33.6267 69.2878 32.6656 70.2489C31.7045 71.21 30.4009 71.75 29.0417 71.75C27.6824 71.75 26.3789 71.21 25.4177 70.2489C24.4566 69.2878 23.9167 67.9842 23.9167 66.625V64.9166H34.1667V66.625ZM68.3333 66.625C68.3333 67.9842 67.7934 69.2878 66.8322 70.2489C65.8711 71.21 64.5676 71.75 63.2083 71.75C61.8491 71.75 60.5455 71.21 59.5844 70.2489C58.6233 69.2878 58.0833 67.9842 58.0833 66.625V64.9166H68.3333V66.625ZM68.3333 58.0833H58.0833V44.4166H75.1667V51.25C75.1667 53.0623 74.4467 54.8004 73.1652 56.0819C71.8837 57.3634 70.1456 58.0833 68.3333 58.0833Z" fill="#034AA6"/>
</g>
<defs>
<clipPath id="clip0_114_78">
<rect width="82" height="82" fill="white"/>
</clipPath>
</defs>
</svg>
