<svg width="82" height="82" viewBox="0 0 82 82" fill="none" xmlns="http://www.w3.org/2000/svg">
<g clip-path="url(#clip0_113_66)">
<path d="M68.1622 18.9147L56.2517 7.00419C54.0362 4.77679 51.401 3.01087 48.4986 1.80861C45.5962 0.606355 42.4842 -0.00836545 39.3426 2.3685e-05H23.9163C19.3872 0.00544887 15.0452 1.80704 11.8426 5.00961C8.64002 8.21218 6.83843 12.5542 6.83301 17.0834V64.9167C6.83843 69.4458 8.64002 73.7879 11.8426 76.9905C15.0452 80.193 19.3872 81.9946 23.9163 82H58.083C62.6121 81.9946 66.9542 80.193 70.1568 76.9905C73.3593 73.7879 75.1609 69.4458 75.1663 64.9167V35.8238C75.1747 32.6822 74.56 29.5702 73.3577 26.6677C72.1555 23.7653 70.3896 21.1301 68.1622 18.9147ZM63.331 23.7459C64.3733 24.8201 65.2704 26.0262 65.9994 27.3334H51.2497C50.3435 27.3334 49.4745 26.9734 48.8337 26.3326C48.193 25.6919 47.833 24.8229 47.833 23.9167V9.16694C49.1402 9.89601 50.3463 10.7931 51.4205 11.8354L63.331 23.7459ZM68.333 64.9167C68.333 67.6352 67.2531 70.2423 65.3308 72.1646C63.4086 74.0868 60.8015 75.1667 58.083 75.1667H23.9163C21.1979 75.1667 18.5907 74.0868 16.6685 72.1646C14.7462 70.2423 13.6663 67.6352 13.6663 64.9167V17.0834C13.6663 14.3649 14.7462 11.7578 16.6685 9.83551C18.5907 7.91327 21.1979 6.83336 23.9163 6.83336H39.3426C39.9063 6.83336 40.4462 6.94269 40.9997 6.99394V23.9167C40.9997 26.6352 42.0796 29.2423 44.0018 31.1645C45.9241 33.0868 48.5312 34.1667 51.2497 34.1667H68.1724C68.2237 34.7202 68.333 35.26 68.333 35.8238V64.9167ZM57.14 45.4793C57.7639 46.1356 58.1017 47.0127 58.0793 47.9179C58.0569 48.8231 57.676 49.6824 57.0204 50.307L44.758 61.9715C42.8305 63.8688 40.2312 64.9272 37.5266 64.9164C34.8221 64.9055 32.2314 63.8261 30.3192 61.9135L25.0575 57.2189C24.3806 56.6154 23.9712 55.7678 23.9193 54.8624C23.8936 54.4141 23.9564 53.9651 24.1042 53.5411C24.2521 53.1171 24.4819 52.7264 24.7808 52.3912C25.0796 52.056 25.4415 51.783 25.8458 51.5877C26.2502 51.3924 26.689 51.2787 27.1373 51.253C28.0427 51.2011 28.9316 51.5109 29.6085 52.1144L35.0239 56.9456C35.3339 57.2938 35.7119 57.5748 36.1346 57.7714C36.5573 57.968 37.0157 58.076 37.4817 58.0888C37.9477 58.1016 38.4114 58.0189 38.8442 57.8458C39.2771 57.6727 39.6699 57.4129 39.9986 57.0823L52.2986 45.3597C52.6238 45.0487 53.0073 44.805 53.427 44.6427C53.8467 44.4803 54.2943 44.4025 54.7441 44.4136C55.194 44.4247 55.6372 44.5245 56.0484 44.7074C56.4595 44.8903 56.8305 45.1526 57.14 45.4793Z" fill="#034AA6"/>
</g>
<defs>
<clipPath id="clip0_113_66">
<rect width="82" height="82" fill="white"/>
</clipPath>
</defs>
</svg>
