<svg width="25" height="25" viewBox="0 0 25 25" fill="none" xmlns="http://www.w3.org/2000/svg">
<g clip-path="url(#clip0_152_3)">
<path d="M19.7917 25H5.20833C3.82751 24.9983 2.50371 24.4491 1.52731 23.4727C0.550919 22.4963 0.00165402 21.1725 0 19.7917L0 5.20833C0.00165402 3.82751 0.550919 2.50371 1.52731 1.52731C2.50371 0.550919 3.82751 0.00165402 5.20833 0L19.7917 0C21.1725 0.00165402 22.4963 0.550919 23.4727 1.52731C24.4491 2.50371 24.9983 3.82751 25 5.20833V19.7917C24.9983 21.1725 24.4491 22.4963 23.4727 23.4727C22.4963 24.4491 21.1725 24.9983 19.7917 25ZM5.20833 2.08333C4.37953 2.08333 3.58468 2.41257 2.99862 2.99862C2.41257 3.58468 2.08333 4.37953 2.08333 5.20833V19.7917C2.08333 20.6205 2.41257 21.4153 2.99862 22.0014C3.58468 22.5874 4.37953 22.9167 5.20833 22.9167H19.7917C20.6205 22.9167 21.4153 22.5874 22.0014 22.0014C22.5874 21.4153 22.9167 20.6205 22.9167 19.7917V5.20833C22.9167 4.37953 22.5874 3.58468 22.0014 2.99862C21.4153 2.41257 20.6205 2.08333 19.7917 2.08333H5.20833ZM9.73125 17.7135C9.29701 17.7121 8.87084 17.596 8.49583 17.3771C8.12536 17.165 7.81787 16.8584 7.60482 16.4885C7.39178 16.1186 7.28083 15.6987 7.28333 15.2719V9.72812C7.28298 9.30119 7.39491 8.88167 7.6079 8.51166C7.82088 8.14165 8.12743 7.83416 8.49679 7.62004C8.86614 7.40592 9.28532 7.2927 9.71225 7.29174C10.1392 7.29078 10.5589 7.40212 10.9292 7.61458L16.4271 10.3594C16.809 10.5655 17.1288 10.8701 17.3534 11.2414C17.578 11.6128 17.6991 12.0375 17.7043 12.4714C17.7095 12.9054 17.5986 13.3329 17.383 13.7095C17.1674 14.0861 16.855 14.3983 16.4781 14.6135L10.8781 17.4125C10.5289 17.6117 10.1333 17.7155 9.73125 17.7135ZM9.70521 9.38021C9.6478 9.38019 9.5914 9.39528 9.54167 9.42396C9.48764 9.45401 9.44281 9.49819 9.41198 9.55177C9.38116 9.60536 9.36549 9.66632 9.36667 9.72812V15.2719C9.36702 15.3328 9.3832 15.3925 9.41363 15.4453C9.44406 15.498 9.48768 15.5419 9.54022 15.5727C9.59276 15.6035 9.65239 15.6201 9.71328 15.6209C9.77417 15.6216 9.83421 15.6065 9.8875 15.5771L15.4875 12.7771C15.5292 12.7445 15.5624 12.7022 15.5841 12.6539C15.6059 12.6057 15.6156 12.5529 15.6125 12.5C15.6138 12.438 15.5981 12.3769 15.567 12.3233C15.536 12.2696 15.4908 12.2256 15.4365 12.1958L9.94271 9.45104C9.87108 9.4071 9.7892 9.38268 9.70521 9.38021Z" fill="#7A7A7A"/>
</g>
<defs>
<clipPath id="clip0_152_3">
<rect width="25" height="25" fill="white"/>
</clipPath>
</defs>
</svg>
