<svg width="15" height="15" viewBox="0 0 15 15" fill="none" xmlns="http://www.w3.org/2000/svg">
<path d="M13.5417 6.29167H8.70833V1.45833C8.70833 1.13786 8.58103 0.830519 8.35442 0.603913C8.12781 0.377306 7.82047 0.25 7.5 0.25C7.17953 0.25 6.87219 0.377306 6.64558 0.603913C6.41897 0.830519 6.29167 1.13786 6.29167 1.45833V6.29167H1.45833C1.13786 6.29167 0.830519 6.41897 0.603913 6.64558C0.377306 6.87219 0.25 7.17953 0.25 7.5C0.25 7.82047 0.377306 8.12781 0.603913 8.35442C0.830519 8.58103 1.13786 8.70833 1.45833 8.70833H6.29167V13.5417C6.29167 13.8621 6.41897 14.1695 6.64558 14.3961C6.87219 14.6227 7.17953 14.75 7.5 14.75C7.82047 14.75 8.12781 14.6227 8.35442 14.3961C8.58103 14.1695 8.70833 13.8621 8.70833 13.5417V8.70833H13.5417C13.8621 8.70833 14.1695 8.58103 14.3961 8.35442C14.6227 8.12781 14.75 7.82047 14.75 7.5C14.75 7.17953 14.6227 6.87219 14.3961 6.64558C14.1695 6.41897 13.8621 6.29167 13.5417 6.29167Z" fill="black"/>
</svg>
