<svg width="82" height="82" viewBox="0 0 82 82" fill="none" xmlns="http://www.w3.org/2000/svg">
<g clip-path="url(#clip0_113_37)">
<path d="M63.4852 7.31163L42.0798 0.174218C41.379 -0.0592121 40.6213 -0.0592121 39.9205 0.174218L18.5151 7.31163C15.1118 8.44214 12.1513 10.6164 10.0542 13.5256C7.95715 16.4347 6.83021 19.9307 6.8335 23.5169V41C6.8335 66.8402 38.2668 81.1116 39.613 81.7061C40.0497 81.9001 40.5223 82.0004 41.0002 82.0004C41.478 82.0004 41.9506 81.9001 42.3873 81.7061C43.7335 81.1116 75.1668 66.8402 75.1668 41V23.5169C75.1701 19.9307 74.0432 16.4347 71.9461 13.5256C69.8491 10.6164 66.8886 8.44214 63.4852 7.31163ZM68.3335 41C68.3335 59.6379 46.7436 71.8627 41.0002 74.7874C35.2499 71.8729 13.6668 59.6857 13.6668 41V23.5169C13.667 21.3653 14.3443 19.2684 15.6026 17.5232C16.8609 15.7779 18.6365 14.4729 20.6778 13.793L41.0002 7.0178L61.3225 13.793C63.3638 14.4729 65.1394 15.7779 66.3977 17.5232C67.6561 19.2684 68.3333 21.3653 68.3335 23.5169V41Z" fill="#034AA6"/>
<path d="M52.2752 28.3583L37.9662 42.7083L30.2992 34.7133C29.9915 34.3769 29.6196 34.1055 29.2054 33.915C28.7912 33.7246 28.343 33.6189 27.8874 33.6043C27.4317 33.5897 26.9777 33.6665 26.5521 33.8301C26.1266 33.9936 25.7381 34.2407 25.4095 34.5568C25.0809 34.8728 24.8189 35.2514 24.6389 35.6703C24.4589 36.0891 24.3646 36.5398 24.3614 36.9957C24.3583 37.4516 24.4464 37.9035 24.6206 38.3248C24.7948 38.7461 25.0516 39.1283 25.3758 39.4488L33.2546 47.6488C33.8422 48.2835 34.5524 48.7924 35.3423 49.1447C36.1321 49.4971 36.9852 49.6856 37.85 49.6988H37.9628C38.8103 49.7016 39.6499 49.5361 40.4329 49.2117C41.216 48.8874 41.9267 48.4107 42.524 47.8094L57.12 33.2134C57.4388 32.8953 57.6918 32.5175 57.8646 32.1016C58.0374 31.6857 58.1266 31.2399 58.1271 30.7895C58.1275 30.3392 58.0393 29.8931 57.8674 29.4768C57.6955 29.0606 57.4433 28.6823 57.1252 28.3635C56.807 28.0447 56.4293 27.7917 56.0134 27.6189C55.5975 27.4461 55.1516 27.3569 54.7012 27.3564C54.2509 27.356 53.8048 27.4442 53.3886 27.6161C52.9723 27.788 52.594 28.0402 52.2752 28.3583Z" fill="#034AA6"/>
</g>
<defs>
<clipPath id="clip0_113_37">
<rect width="82" height="82" fill="white"/>
</clipPath>
</defs>
</svg>
