<svg width="20" height="20" viewBox="0 0 20 20" fill="none" xmlns="http://www.w3.org/2000/svg">
<g clip-path="url(#clip0_92_9)">
<path d="M20 9.37249C19.8794 7.42251 19.1909 5.55042 18.0193 3.98702C16.8477 2.42361 15.2441 1.23724 13.4064 0.574159C11.5687 -0.0889222 9.57704 -0.199725 7.6771 0.25541C5.77715 0.710545 4.05191 1.71172 2.71409 3.13551C1.37626 4.5593 0.484331 6.34346 0.148249 8.26804C-0.187833 10.1926 0.0466277 12.1735 0.822727 13.9664C1.59883 15.7594 2.88264 17.286 4.51589 18.3581C6.14914 19.4302 8.06042 20.001 10.0141 20H15.8333C16.938 19.9989 17.9972 19.5596 18.7784 18.7784C19.5595 17.9972 19.9989 16.9381 20 15.8333V9.37249ZM18.3333 15.8333C18.3333 16.4964 18.0699 17.1323 17.6011 17.6011C17.1322 18.0699 16.4963 18.3333 15.8333 18.3333H10.0141C8.83824 18.3328 7.67566 18.0844 6.60221 17.6044C5.52875 17.1244 4.56852 16.4235 3.78413 15.5475C2.99594 14.6719 2.40407 13.6379 2.04821 12.5148C1.69234 11.3917 1.58071 10.2056 1.7208 9.03583C1.94199 7.19078 2.77095 5.47182 4.077 4.14993C5.38304 2.82805 7.09188 1.97842 8.93413 1.735C9.29349 1.68996 9.65529 1.66713 10.0175 1.66666C11.9595 1.66137 13.8415 2.33992 15.3333 3.58333C16.2046 4.30745 16.9197 5.20096 17.4354 6.20969C17.9511 7.21842 18.2565 8.32136 18.3333 9.45166V15.8333Z" fill="black"/>
<path d="M6.66671 7.5H10C10.2211 7.5 10.433 7.41221 10.5893 7.25592C10.7456 7.09964 10.8334 6.88768 10.8334 6.66667C10.8334 6.44566 10.7456 6.23369 10.5893 6.07741C10.433 5.92113 10.2211 5.83334 10 5.83334H6.66671C6.44569 5.83334 6.23373 5.92113 6.07745 6.07741C5.92117 6.23369 5.83337 6.44566 5.83337 6.66667C5.83337 6.88768 5.92117 7.09964 6.07745 7.25592C6.23373 7.41221 6.44569 7.5 6.66671 7.5Z" fill="black"/>
<path d="M13.3334 9.16666H6.66671C6.44569 9.16666 6.23373 9.25446 6.07745 9.41074C5.92117 9.56702 5.83337 9.77898 5.83337 10C5.83337 10.221 5.92117 10.433 6.07745 10.5893C6.23373 10.7455 6.44569 10.8333 6.66671 10.8333H13.3334C13.5544 10.8333 13.7663 10.7455 13.9226 10.5893C14.0789 10.433 14.1667 10.221 14.1667 10C14.1667 9.77898 14.0789 9.56702 13.9226 9.41074C13.7663 9.25446 13.5544 9.16666 13.3334 9.16666Z" fill="black"/>
<path d="M13.3334 12.5H6.66671C6.44569 12.5 6.23373 12.5878 6.07745 12.7441C5.92117 12.9004 5.83337 13.1123 5.83337 13.3333C5.83337 13.5543 5.92117 13.7663 6.07745 13.9226C6.23373 14.0789 6.44569 14.1667 6.66671 14.1667H13.3334C13.5544 14.1667 13.7663 14.0789 13.9226 13.9226C14.0789 13.7663 14.1667 13.5543 14.1667 13.3333C14.1667 13.1123 14.0789 12.9004 13.9226 12.7441C13.7663 12.5878 13.5544 12.5 13.3334 12.5Z" fill="black"/>
</g>
<defs>
<clipPath id="clip0_92_9">
<rect width="20" height="20" fill="white"/>
</clipPath>
</defs>
</svg>
