<svg width="25" height="24" viewBox="0 0 25 24" fill="none" xmlns="http://www.w3.org/2000/svg">
<path d="M24.8202 8.81409C24.6071 8.18521 24.1815 7.63661 23.6061 7.24941C23.0308 6.86221 22.3363 6.65698 21.6254 6.66406H17.0744L15.6921 2.66922C15.4747 2.0404 15.0476 1.49183 14.4723 1.10264C13.897 0.713442 13.2032 0.503723 12.491 0.503723C11.7789 0.503723 11.0851 0.713442 10.5098 1.10264C9.93452 1.49183 9.50738 2.0404 9.29001 2.66922L7.90771 6.66406H3.35667C2.64807 6.665 1.95791 6.87354 1.38478 7.25991C0.811638 7.64628 0.384838 8.19071 0.165339 8.81543C-0.0541605 9.44015 -0.0551321 10.1132 0.162563 10.7385C0.380258 11.3637 0.805484 11.9092 1.3775 12.297L5.08167 14.8083L3.67334 18.8524C3.44575 19.4796 3.44286 20.1582 3.66512 20.7871C3.88737 21.416 4.32287 21.9614 4.90667 22.3421C5.48048 22.735 6.17583 22.9455 6.88912 22.9421C7.60242 22.9388 8.29547 22.7219 8.86501 22.3237L12.491 19.8492L16.1181 22.3208C16.6909 22.7115 17.3825 22.9237 18.0935 22.9269C18.8045 22.9301 19.4983 22.7242 20.0752 22.3387C20.652 21.9533 21.0822 21.4081 21.3038 20.7817C21.5255 20.1553 21.5272 19.4798 21.3088 18.8524L19.9004 14.8083L23.6088 12.297C24.1873 11.9141 24.6175 11.3686 24.8357 10.7413C25.0539 10.114 25.0485 9.43829 24.8202 8.81409ZM22.3796 10.7371L18.0629 13.6628C17.8856 13.7827 17.7537 13.9515 17.686 14.1451C17.6183 14.3386 17.6182 14.5471 17.6858 14.7407L19.3265 19.4445C19.4095 19.683 19.4088 19.9399 19.3244 20.1781C19.2401 20.4162 19.0765 20.6235 18.8571 20.77C18.6378 20.9165 18.3739 20.9948 18.1036 20.9935C17.8332 20.9922 17.5703 20.9115 17.3525 20.7629L13.1077 17.8653C12.9289 17.7435 12.7129 17.6778 12.491 17.6778C12.2692 17.6778 12.0532 17.7435 11.8744 17.8653L7.62959 20.7629C7.41197 20.9135 7.14827 20.9959 6.87674 20.9982C6.60521 21.0005 6.33994 20.9225 6.11941 20.7756C5.89888 20.6287 5.73454 20.4205 5.65021 20.1811C5.56588 19.9418 5.56596 19.6838 5.65042 19.4445L7.29626 14.7407C7.36388 14.5471 7.36383 14.3386 7.29611 14.1451C7.2284 13.9515 7.09648 13.7827 6.91917 13.6628L2.6025 10.7371C2.38511 10.5895 2.22358 10.382 2.14099 10.1442C2.05839 9.90643 2.05895 9.65051 2.14259 9.41302C2.22623 9.17554 2.38868 8.96863 2.60671 8.82187C2.82475 8.6751 3.08724 8.59598 3.35667 8.5958H8.66917C8.88971 8.5958 9.10456 8.53089 9.28277 8.41043C9.46098 8.28997 9.59336 8.12017 9.66084 7.92549L11.2754 3.25937C11.3583 3.02059 11.5208 2.81235 11.7394 2.66463C11.958 2.51691 12.2216 2.43732 12.4921 2.43732C12.7626 2.43732 13.0262 2.51691 13.2448 2.66463C13.4634 2.81235 13.6259 3.02059 13.7088 3.25937L15.3233 7.92549C15.3908 8.12017 15.5232 8.28997 15.7014 8.41043C15.8796 8.53089 16.0945 8.5958 16.315 8.5958H21.6275C21.8969 8.59598 22.1594 8.6751 22.3775 8.82187C22.5955 8.96863 22.7579 9.17554 22.8416 9.41302C22.9252 9.65051 22.9258 9.90643 22.8432 10.1442C22.7606 10.382 22.5991 10.5895 22.3817 10.7371H22.3796Z" fill="#5786C2"/>
</svg>
