<svg width="21" height="20" viewBox="0 0 21 20" fill="none" xmlns="http://www.w3.org/2000/svg">
<g clip-path="url(#clip0_92_48)">
<path d="M11.375 0.8332C11.375 0.612186 11.4672 0.400224 11.6313 0.243944C11.7954 0.0876634 12.0179 -0.000134037 12.25 -0.000134037C14.5699 0.00229229 16.794 0.881045 18.4344 2.44332C20.0748 4.0056 20.9975 6.12381 21 8.3332C21 8.55422 20.9078 8.76618 20.7437 8.92246C20.5796 9.07874 20.3571 9.16654 20.125 9.16654C19.8929 9.16654 19.6704 9.07874 19.5063 8.92246C19.3422 8.76618 19.25 8.55422 19.25 8.3332C19.2479 6.5657 18.5098 4.87116 17.1975 3.62135C15.8851 2.37153 14.1059 1.66852 12.25 1.66653C12.0179 1.66653 11.7954 1.57874 11.6313 1.42246C11.4672 1.26618 11.375 1.05421 11.375 0.8332ZM12.25 4.99987C13.1783 4.99987 14.0685 5.35106 14.7249 5.97618C15.3813 6.6013 15.75 7.44915 15.75 8.3332C15.75 8.55422 15.8422 8.76618 16.0063 8.92246C16.1704 9.07874 16.3929 9.16654 16.625 9.16654C16.8571 9.16654 17.0796 9.07874 17.2437 8.92246C17.4078 8.76618 17.5 8.55422 17.5 8.3332C17.4986 7.00753 16.945 5.73653 15.9608 4.79913C14.9765 3.86173 13.642 3.33452 12.25 3.3332C12.0179 3.3332 11.7954 3.421 11.6313 3.57728C11.4672 3.73356 11.375 3.94552 11.375 4.16653C11.375 4.38755 11.4672 4.59951 11.6313 4.75579C11.7954 4.91207 12.0179 4.99987 12.25 4.99987ZM20.2064 13.949C20.7135 14.4333 20.9982 15.0893 20.9982 15.7732C20.9982 16.4571 20.7135 17.1131 20.2064 17.5974L19.4101 18.4715C12.2439 25.0057 -5.19487 8.40154 1.56013 1.55487L2.56638 0.721533C3.07543 0.252097 3.75807 -0.00759314 4.46662 -0.001355C5.17517 0.00488314 5.85266 0.276548 6.3525 0.754866C6.37963 0.7807 8.00101 2.78653 8.00101 2.78653C8.48211 3.26789 8.74992 3.90731 8.74878 4.57187C8.74764 5.23643 8.47763 5.87501 7.99488 6.35487L6.98163 7.5682C7.54237 8.8658 8.36681 10.0451 9.40758 11.0383C10.4483 12.0315 11.6849 12.819 13.0463 13.3557L14.3281 12.3849C14.832 11.9255 15.5024 11.6686 16.2 11.6677C16.8976 11.6668 17.5687 11.9218 18.074 12.3799C18.074 12.3799 20.1793 13.9232 20.2064 13.949ZM19.0024 15.1607C19.0024 15.1607 16.9085 13.6265 16.8814 13.6007C16.7011 13.4305 16.4575 13.335 16.2037 13.335C15.9498 13.335 15.7063 13.4305 15.526 13.6007C15.5024 13.624 13.7375 14.9632 13.7375 14.9632C13.6186 15.0534 13.477 15.1125 13.3268 15.1347C13.1766 15.1569 13.0229 15.1414 12.8809 15.0899C11.1173 14.4645 9.5154 13.4855 8.18373 12.2191C6.85207 10.9527 5.82173 9.42856 5.1625 7.74987C5.10405 7.61275 5.085 7.46328 5.10729 7.31682C5.12959 7.17036 5.19244 7.0322 5.28938 6.91654C5.28938 6.91654 6.6955 5.23487 6.71913 5.2132C6.89786 5.04152 6.99815 4.80955 6.99815 4.56778C6.99815 4.32602 6.89786 4.09405 6.71913 3.92237C6.692 3.89737 5.08113 1.90153 5.08113 1.90153C4.89817 1.74529 4.65938 1.66161 4.41372 1.66766C4.16806 1.6737 3.93413 1.769 3.75988 1.93403L2.75363 2.76737C-2.18312 8.4207 12.929 22.0149 18.1309 17.3332L18.928 16.4582C19.1148 16.2934 19.227 16.0659 19.2409 15.8238C19.2548 15.5817 19.1692 15.3439 19.0024 15.1607Z" fill="white"/>
</g>
<defs>
<clipPath id="clip0_92_48">
<rect width="21" height="20" fill="white"/>
</clipPath>
</defs>
</svg>
