<svg width="82" height="82" viewBox="0 0 82 82" fill="none" xmlns="http://www.w3.org/2000/svg">
<g clip-path="url(#clip0_114_80)">
<path d="M64.9167 3.41663H17.0833C12.5542 3.42205 8.21216 5.22364 5.00958 8.42621C1.80701 11.6288 0.00542518 15.9708 0 20.5L0 47.8333C0.00542518 52.3624 1.80701 56.7045 5.00958 59.9071C8.21216 63.1096 12.5542 64.9112 17.0833 64.9166H37.5833V71.75H23.9167C23.0105 71.75 22.1415 72.1099 21.5007 72.7507C20.86 73.3914 20.5 74.2605 20.5 75.1666C20.5 76.0728 20.86 76.9418 21.5007 77.5826C22.1415 78.2233 23.0105 78.5833 23.9167 78.5833H58.0833C58.9895 78.5833 59.8585 78.2233 60.4993 77.5826C61.14 76.9418 61.5 76.0728 61.5 75.1666C61.5 74.2605 61.14 73.3914 60.4993 72.7507C59.8585 72.1099 58.9895 71.75 58.0833 71.75H44.4167V64.9166H64.9167C69.4458 64.9112 73.7878 63.1096 76.9904 59.9071C80.193 56.7045 81.9946 52.3624 82 47.8333V20.5C81.9946 15.9708 80.193 11.6288 76.9904 8.42621C73.7878 5.22364 69.4458 3.42205 64.9167 3.41663ZM75.1667 47.8333C75.1667 50.5518 74.0868 53.1589 72.1645 55.0811C70.2423 57.0034 67.6351 58.0833 64.9167 58.0833H17.0833C14.3649 58.0833 11.7577 57.0034 9.83549 55.0811C7.91324 53.1589 6.83333 50.5518 6.83333 47.8333V20.5C6.83333 17.7815 7.91324 15.1744 9.83549 13.2521C11.7577 11.3299 14.3649 10.25 17.0833 10.25H64.9167C67.6351 10.25 70.2423 11.3299 72.1645 13.2521C74.0868 15.1744 75.1667 17.7815 75.1667 20.5V47.8333ZM68.3333 34.1666C68.3333 35.0728 67.9734 35.9418 67.3326 36.5826C66.6919 37.2233 65.8228 37.5833 64.9167 37.5833H54.7862L48.9779 46.3129C48.6648 46.7821 48.2405 47.1666 47.7426 47.4319C47.2448 47.6972 46.6891 47.8351 46.125 47.8333C46.0532 47.8333 45.9815 47.8333 45.9132 47.8333C45.3154 47.7965 44.7378 47.6032 44.2383 47.2728C43.7387 46.9423 43.3349 46.4864 43.0671 45.9507L35.4513 30.709L31.8843 36.0629C31.5722 36.5307 31.1495 36.9142 30.6536 37.1794C30.1577 37.4447 29.604 37.5834 29.0417 37.5833H17.0833C16.1772 37.5833 15.3081 37.2233 14.6674 36.5826C14.0266 35.9418 13.6667 35.0728 13.6667 34.1666C13.6667 33.2605 14.0266 32.3914 14.6674 31.7507C15.3081 31.1099 16.1772 30.75 17.0833 30.75H27.2137L33.0221 22.0204C33.3509 21.5166 33.8084 21.11 34.3473 20.8427C34.8862 20.5753 35.4868 20.457 36.0868 20.5C36.6846 20.5368 37.2622 20.7301 37.7617 21.0605C38.2612 21.3909 38.6651 21.8468 38.9329 22.3825L46.5487 37.6175L50.1157 32.2635C50.4286 31.797 50.8516 31.4148 51.3475 31.1508C51.8433 30.8868 52.3966 30.7491 52.9583 30.75H64.9167C65.8228 30.75 66.6919 31.1099 67.3326 31.7507C67.9734 32.3914 68.3333 33.2605 68.3333 34.1666Z" fill="#034AA6"/>
</g>
<defs>
<clipPath id="clip0_114_80">
<rect width="82" height="82" fill="white"/>
</clipPath>
</defs>
</svg>
